<svg xmlns="http://www.w3.org/2000/svg" width="97" height="97" viewBox="0 0 97 97">
  <metadata><?xpacket begin="﻿" id="W5M0MpCehiHzreSzNTczkc9d"?>
<x:xmpmeta xmlns:x="adobe:ns:meta/" x:xmptk="Adobe XMP Core 5.6-c140 79.160451, 2017/05/06-01:08:21        ">
   <rdf:RDF xmlns:rdf="http://www.w3.org/1999/02/22-rdf-syntax-ns#">
      <rdf:Description rdf:about=""/>
   </rdf:RDF>
</x:xmpmeta>
                                                                                                    
                                                                                                    
                                                                                                    
                                                                                                    
                                                                                                    
                                                                                                    
                                                                                                    
                                                                                                    
                                                                                                    
                                                                                                    
                                                                                                    
                                                                                                    
                                                                                                    
                                                                                                    
                                                                                                    
                                                                                                    
                                                                                                    
                                                                                                    
                                                                                                    
                                                                                                    
                           
<?xpacket end="w"?></metadata>
<defs>
    <style>
      .cls-1 {
        fill-rule: evenodd;
      }
    </style>
  </defs>
  <path id="Forma_1" data-name="Forma 1" class="cls-1" d="M12.447,0H84.553A12.156,12.156,0,0,1,97,12.446V84.553A12.156,12.156,0,0,1,84.553,97H12.447A12.156,12.156,0,0,1,0,84.553V12.446A12.156,12.156,0,0,1,12.447,0h0ZM70.662,10.774A4.379,4.379,0,0,0,66.3,15.141V25.594a4.379,4.379,0,0,0,4.367,4.368H81.626a4.38,4.38,0,0,0,4.366-4.368V15.141a4.379,4.379,0,0,0-4.366-4.367H70.662ZM86.039,41.019H77.5a28.389,28.389,0,0,1,1.245,8.322c0,16.136-13.5,29.216-30.154,29.216S18.44,65.478,18.44,49.342a28.334,28.334,0,0,1,1.245-8.322H10.775V82a3.868,3.868,0,0,0,3.857,3.857H82.185A3.867,3.867,0,0,0,86.041,82V41.019h0ZM48.59,29.411c-10.759,0-19.482,8.451-19.482,18.878S37.832,67.167,48.59,67.167s19.485-8.452,19.485-18.878S59.352,29.411,48.59,29.411Z"/>
</svg>
