<svg xmlns="http://www.w3.org/2000/svg" width="800" height="453" viewBox="0 0 800 453">
  <metadata><?xpacket begin="﻿" id="W5M0MpCehiHzreSzNTczkc9d"?>
<x:xmpmeta xmlns:x="adobe:ns:meta/" x:xmptk="Adobe XMP Core 5.6-c140 79.160451, 2017/05/06-01:08:21        ">
   <rdf:RDF xmlns:rdf="http://www.w3.org/1999/02/22-rdf-syntax-ns#">
      <rdf:Description rdf:about=""/>
   </rdf:RDF>
</x:xmpmeta>
                                                                                                    
                                                                                                    
                                                                                                    
                                                                                                    
                                                                                                    
                                                                                                    
                                                                                                    
                                                                                                    
                                                                                                    
                                                                                                    
                                                                                                    
                                                                                                    
                                                                                                    
                                                                                                    
                                                                                                    
                                                                                                    
                                                                                                    
                                                                                                    
                                                                                                    
                                                                                                    
                           
<?xpacket end="w"?></metadata>
<defs>
    <style>
      .cls-1 {
        fill-rule: evenodd;
      }
    </style>
  </defs>
  <path class="cls-1" d="M688.784,287.85c26.536,25.906,54.544,50.282,78.345,78.8,10.513,12.673,20.467,25.752,28.082,40.46,10.789,20.909,1.017,43.917-17.732,45.165l-116.544-.052c-30.059,2.494-54.038-9.607-74.2-30.158-16.137-16.434-31.079-33.926-46.6-50.916-6.36-6.944-13.018-13.478-20.971-18.643-15.91-10.326-29.721-7.164-38.812,9.429C471.1,378.813,469,397.5,468.089,416.309c-1.248,27.442-9.544,34.657-37.111,35.913-58.913,2.778-114.825-6.135-166.765-35.853-45.793-26.2-81.3-63.185-112.21-105.057C91.826,229.778,45.742,140.187,4.323,48.085-5,27.335,1.818,16.2,24.714,15.8c38.02-.739,76.035-0.686,114.1-0.053,15.452,0.226,25.682,9.089,31.648,23.687,20.57,50.577,45.74,98.7,77.334,143.3,8.413,11.874,16.992,23.749,29.209,32.107,13.516,9.255,23.805,6.187,30.164-8.868,4.035-9.546,5.8-19.828,6.711-30.052,3.011-35.175,3.409-70.289-1.874-105.341C308.762,48.706,296.44,34.544,274.611,30.4c-11.14-2.11-9.481-6.255-4.088-12.613C279.891,6.826,288.7,0,306.264,0H437.978c20.735,4.092,25.34,13.407,28.179,34.271l0.112,146.3c-0.225,8.077,4.035,32.045,18.584,37.391,11.643,3.806,19.319-5.509,26.305-12.892,31.536-33.469,54.043-73.023,74.15-113.98,8.924-18.009,16.6-36.713,24.032-55.4C614.848,21.823,623.494,15,639.115,15.3L765.88,15.415a66.868,66.868,0,0,1,11.2.678c21.361,3.64,27.214,12.828,20.616,33.687-10.395,32.725-30.62,60-50.4,87.394-21.141,29.251-43.75,57.5-64.715,86.924-19.261,26.87-17.731,40.413,6.2,63.751h0Z"/>
</svg>
